<svg width="20" height="18" viewBox="0 0 20 18" fill="none" xmlns="http://www.w3.org/2000/svg">
<mask id="mask0_294678_9879" style="mask-type:alpha" maskUnits="userSpaceOnUse" x="0" y="-1" width="20" height="20">
<rect y="-1" width="20" height="20" fill="#D9D9D9"/>
</mask>
<g mask="url(#mask0_294678_9879)">
<path d="M9.16676 5.52059L5.08342 9.60392C4.91676 9.77059 4.72231 9.85045 4.50009 9.84351C4.27787 9.83656 4.08342 9.74976 3.91676 9.58309C3.76398 9.41642 3.68412 9.22198 3.67717 8.99976C3.67023 8.77753 3.75009 8.58309 3.91676 8.41642L9.41676 2.91642C9.50009 2.83309 9.59037 2.77406 9.68759 2.73934C9.78481 2.70462 9.88898 2.68726 10.0001 2.68726C10.1112 2.68726 10.2154 2.70462 10.3126 2.73934C10.4098 2.77406 10.5001 2.83309 10.5834 2.91642L16.0834 8.41642C16.2362 8.5692 16.3126 8.76017 16.3126 8.98934C16.3126 9.21851 16.2362 9.41642 16.0834 9.58309C15.9168 9.74976 15.7188 9.83309 15.4897 9.83309C15.2605 9.83309 15.0626 9.74976 14.8959 9.58309L10.8334 5.52059V14.8331C10.8334 15.0692 10.7536 15.2671 10.5938 15.4268C10.4341 15.5866 10.2362 15.6664 10.0001 15.6664C9.76398 15.6664 9.56606 15.5866 9.40634 15.4268C9.24662 15.2671 9.16676 15.0692 9.16676 14.8331V5.52059Z" fill="white"/>
</g>
</svg>
