<svg width="20" height="20" viewBox="0 0 20 20" fill="none" xmlns="http://www.w3.org/2000/svg">
<mask id="mask0_294678_9884" style="mask-type:alpha" maskUnits="userSpaceOnUse" x="0" y="0" width="20" height="20">
<rect width="20" height="20" fill="#D9D9D9"/>
</mask>
<g mask="url(#mask0_294678_9884)">
<path d="M9.16764 13.4791V4.16659C9.16764 3.93047 9.2475 3.73256 9.40723 3.57284C9.56695 3.41311 9.76487 3.33325 10.001 3.33325C10.2371 3.33325 10.435 3.41311 10.5947 3.57284C10.7544 3.73256 10.8343 3.93047 10.8343 4.16659V13.4791L14.9176 9.39575C15.0843 9.22909 15.2788 9.14922 15.501 9.15617C15.7232 9.16311 15.9176 9.24992 16.0843 9.41659C16.2371 9.58325 16.3169 9.7777 16.3239 9.99992C16.3308 10.2221 16.251 10.4166 16.0843 10.5833L10.5843 16.0833C10.501 16.1666 10.4107 16.2256 10.3135 16.2603C10.2163 16.2951 10.1121 16.3124 10.001 16.3124C9.88987 16.3124 9.7857 16.2951 9.68848 16.2603C9.59125 16.2256 9.50098 16.1666 9.41764 16.0833L3.91764 10.5833C3.76487 10.4305 3.68848 10.2395 3.68848 10.0103C3.68848 9.78117 3.76487 9.58325 3.91764 9.41659C4.08431 9.24992 4.28223 9.16658 4.51139 9.16658C4.74056 9.16658 4.93848 9.24992 5.10514 9.41659L9.16764 13.4791Z" fill="white"/>
</g>
</svg>
