<svg version="1.2" xmlns="http://www.w3.org/2000/svg" viewBox="0 0 24 24" width="24" height="24">
	<defs>
		<clipPath clipPathUnits="userSpaceOnUse" id="cp1">
			<path d="m0 0h24v24h-24z"/>
		</clipPath>
	</defs>
	<style>
		.s0 { fill: #ffffff } 
	</style>
	<g id="Clip-Path" clip-path="url(#cp1)">
		<g>
			<path class="s0" d="m12 12q-1.65 0-2.82-1.18-1.18-1.17-1.18-2.82 0-1.65 1.18-2.83 1.17-1.17 2.82-1.17 1.65 0 2.82 1.17 1.18 1.18 1.18 2.83 0 1.65-1.18 2.82-1.17 1.18-2.82 1.18zm6 8h-12q-0.82 0-1.41-0.59-0.59-0.59-0.59-1.41v-0.8q0-0.85 0.44-1.56 0.44-0.71 1.16-1.09 1.55-0.78 3.15-1.16 1.6-0.39 3.25-0.39 1.65 0 3.25 0.39 1.6 0.38 3.15 1.16 0.72 0.38 1.16 1.09 0.44 0.71 0.44 1.56v0.8q0 0.82-0.59 1.41-0.59 0.59-1.41 0.59zm-12-2h12v-0.8q0-0.27-0.14-0.5-0.14-0.23-0.36-0.35-1.35-0.67-2.72-1.01-1.38-0.34-2.78-0.34-1.4 0-2.78 0.34-1.37 0.34-2.72 1.01-0.22 0.12-0.36 0.35-0.14 0.23-0.14 0.5zm6-8q0.82 0 1.41-0.59 0.59-0.59 0.59-1.41 0-0.82-0.59-1.41-0.59-0.59-1.41-0.59-0.82 0-1.41 0.59-0.59 0.59-0.59 1.41 0 0.82 0.59 1.41 0.59 0.59 1.41 0.59z"/>
		</g>
	</g>
</svg>