<svg version="1.2" xmlns="http://www.w3.org/2000/svg" viewBox="0 0 32 32" width="32" height="32">
	<defs>
		<clipPath clipPathUnits="userSpaceOnUse" id="cp1">
			<path d="m24.5 22h-17v-12h17z"/>
		</clipPath>
	</defs>
	<style>
		.s0 { fill: #ffffff } 
	</style>
	<g id="Clip-Path" clip-path="url(#cp1)">
		<g>
			<path class="s0" d="m16 14.75q0.31 0.01 0.55 0.18l7.57 5.44q0.15 0.1 0.25 0.26 0.09 0.15 0.12 0.33 0.05 0.37-0.17 0.67-0.23 0.3-0.61 0.36-0.38 0.05-0.7-0.17l-7.01-5.03-7.01 5.03q-0.15 0.11-0.33 0.15-0.18 0.05-0.37 0.02-0.18-0.03-0.34-0.12-0.16-0.09-0.27-0.24-0.11-0.14-0.15-0.32-0.05-0.17-0.02-0.35 0.03-0.18 0.12-0.33 0.1-0.16 0.25-0.26l7.57-5.44q0.24-0.17 0.55-0.18z"/>
			<path class="s0" d="m16 10q0.31 0 0.55 0.18l7.57 5.43q0.31 0.23 0.37 0.59 0.05 0.37-0.17 0.68-0.23 0.3-0.61 0.36-0.38 0.05-0.7-0.17l-7.01-5.03-7.01 5.03q-0.32 0.22-0.7 0.17-0.38-0.06-0.61-0.36-0.22-0.31-0.17-0.68 0.06-0.36 0.37-0.59l7.57-5.43q0.24-0.18 0.55-0.18z"/>
		</g>
	</g>
</svg>