<svg version="1.2" xmlns="http://www.w3.org/2000/svg" viewBox="0 0 32 32" width="32" height="32">
	<defs>
		<clipPath clipPathUnits="userSpaceOnUse" id="cp1">
			<path d="m7.5 12.83h17v6.34h-17z"/>
		</clipPath>
	</defs>
	<style>
		.s0 { fill: #ffffff } 
	</style>
	<g id="Clip-Path" clip-path="url(#cp1)">
		<g>
			<path class="s0" d="m23.57 19.17h-15.14q-0.38-0.01-0.66-0.28-0.26-0.28-0.27-0.66 0.01-0.39 0.27-0.67 0.28-0.26 0.66-0.27h15.14q0.38 0.01 0.66 0.27 0.26 0.28 0.27 0.67-0.01 0.38-0.27 0.66-0.28 0.27-0.66 0.28z"/>
			<path class="s0" d="m23.57 14.71h-15.14q-0.38-0.01-0.66-0.28-0.26-0.27-0.27-0.66 0.01-0.38 0.27-0.66 0.28-0.27 0.66-0.28h15.14q0.38 0.01 0.66 0.28 0.26 0.28 0.27 0.66-0.01 0.39-0.27 0.66-0.28 0.27-0.66 0.28z"/>
		</g>
	</g>
</svg>