<svg width="33" height="32" viewBox="0 0 33 32" fill="none" xmlns="http://www.w3.org/2000/svg">
<circle cx="16.1445" cy="16" r="16" fill="#29ABE2"/>
<path d="M15.1445 16.05V10C13.8779 10.2333 12.8945 10.8458 12.1945 11.8375C11.4945 12.8292 11.1445 13.85 11.1445 14.9H10.6445C9.67786 14.9 8.85286 15.2417 8.16953 15.925C7.4862 16.6083 7.14453 17.4333 7.14453 18.4C7.14453 19.3667 7.4862 20.1917 8.16953 20.875C8.85286 21.5583 9.67786 21.9 10.6445 21.9H22.6445C23.3445 21.9 23.9362 21.6583 24.4195 21.175C24.9029 20.6917 25.1445 20.1 25.1445 19.4C25.1445 18.7 24.9029 18.1083 24.4195 17.625C23.9362 17.1417 23.3445 16.9 22.6445 16.9H21.1445V14.9C21.1445 14.1 20.9612 13.3542 20.5945 12.6625C20.2279 11.9708 19.7445 11.3833 19.1445 10.9V8.575C20.3779 9.15833 21.3529 10.0208 22.0695 11.1625C22.7862 12.3042 23.1445 13.55 23.1445 14.9C24.2945 15.0333 25.2487 15.5292 26.007 16.3875C26.7654 17.2458 27.1445 18.25 27.1445 19.4C27.1445 20.65 26.707 21.7125 25.832 22.5875C24.957 23.4625 23.8945 23.9 22.6445 23.9H10.6445C9.12786 23.9 7.83203 23.375 6.75703 22.325C5.68203 21.275 5.14453 19.9917 5.14453 18.475C5.14453 17.175 5.5362 16.0167 6.31953 15C7.10286 13.9833 8.12786 13.3333 9.39453 13.05C9.67786 11.85 10.3862 10.7083 11.5195 9.625C12.6529 8.54167 13.8612 8 15.1445 8C15.6945 8 16.1654 8.19583 16.557 8.5875C16.9487 8.97917 17.1445 9.45 17.1445 10V16.05L18.0445 15.175C18.2279 14.9917 18.457 14.9 18.732 14.9C19.007 14.9 19.2445 15 19.4445 15.2C19.6279 15.3833 19.7195 15.6167 19.7195 15.9C19.7195 16.1833 19.6279 16.4167 19.4445 16.6L16.8445 19.2C16.6445 19.4 16.4112 19.5 16.1445 19.5C15.8779 19.5 15.6445 19.4 15.4445 19.2L12.8445 16.6C12.6612 16.4167 12.5654 16.1875 12.557 15.9125C12.5487 15.6375 12.6445 15.4 12.8445 15.2C13.0279 15.0167 13.257 14.9208 13.532 14.9125C13.807 14.9042 14.0445 14.9917 14.2445 15.175L15.1445 16.05Z" fill="white"/>
</svg>
