<svg width="24" height="24" viewBox="0 0 24 24" fill="none" xmlns="http://www.w3.org/2000/svg">
<rect width="24" height="24" rx="12" fill="#EEEEEE"/>
<mask id="mask0_261540_9864" style="mask-type:alpha" maskUnits="userSpaceOnUse" x="0" y="0" width="24" height="24">
<rect width="24" height="24" fill="#D9D9D9"/>
</mask>
<g mask="url(#mask0_261540_9864)">
<mask id="mask1_261540_9864" style="mask-type:alpha" maskUnits="userSpaceOnUse" x="-1" y="0" width="25" height="24">
<rect x="-0.144531" width="24" height="24" fill="#D9D9D9"/>
</mask>
<g mask="url(#mask1_261540_9864)">
<path d="M10.8555 12.1501V6.1001C9.5888 6.33343 8.60547 6.94593 7.90547 7.9376C7.20547 8.92926 6.85547 9.9501 6.85547 11.0001H6.35547C5.3888 11.0001 4.5638 11.3418 3.88047 12.0251C3.19714 12.7084 2.85547 13.5334 2.85547 14.5001C2.85547 15.4668 3.19714 16.2918 3.88047 16.9751C4.5638 17.6584 5.3888 18.0001 6.35547 18.0001H18.3555C19.0555 18.0001 19.6471 17.7584 20.1305 17.2751C20.6138 16.7918 20.8555 16.2001 20.8555 15.5001C20.8555 14.8001 20.6138 14.2084 20.1305 13.7251C19.6471 13.2418 19.0555 13.0001 18.3555 13.0001H16.8555V11.0001C16.8555 10.2001 16.6721 9.45426 16.3055 8.7626C15.9388 8.07093 15.4555 7.48343 14.8555 7.0001V4.6751C16.0888 5.25843 17.0638 6.12093 17.7805 7.2626C18.4971 8.40426 18.8555 9.6501 18.8555 11.0001C20.0055 11.1334 20.9596 11.6293 21.718 12.4876C22.4763 13.3459 22.8555 14.3501 22.8555 15.5001C22.8555 16.7501 22.418 17.8126 21.543 18.6876C20.668 19.5626 19.6055 20.0001 18.3555 20.0001H6.35547C4.8388 20.0001 3.54297 19.4751 2.46797 18.4251C1.39297 17.3751 0.855469 16.0918 0.855469 14.5751C0.855469 13.2751 1.24714 12.1168 2.03047 11.1001C2.8138 10.0834 3.8388 9.43343 5.10547 9.1501C5.3888 7.9501 6.09714 6.80843 7.23047 5.7251C8.3638 4.64176 9.57214 4.1001 10.8555 4.1001C11.4055 4.1001 11.8763 4.29593 12.268 4.6876C12.6596 5.07926 12.8555 5.5501 12.8555 6.1001V12.1501L13.7555 11.2751C13.9388 11.0918 14.168 11.0001 14.443 11.0001C14.718 11.0001 14.9555 11.1001 15.1555 11.3001C15.3388 11.4834 15.4305 11.7168 15.4305 12.0001C15.4305 12.2834 15.3388 12.5168 15.1555 12.7001L12.5555 15.3001C12.3555 15.5001 12.1221 15.6001 11.8555 15.6001C11.5888 15.6001 11.3555 15.5001 11.1555 15.3001L8.55547 12.7001C8.37214 12.5168 8.2763 12.2876 8.26797 12.0126C8.25964 11.7376 8.35547 11.5001 8.55547 11.3001C8.7388 11.1168 8.96797 11.0209 9.24297 11.0126C9.51797 11.0043 9.75547 11.0918 9.95547 11.2751L10.8555 12.1501Z" fill="#1C1B1F"/>
</g>
</g>
</svg>
