<svg width="22" height="16" viewBox="0 0 22 16" fill="none" xmlns="http://www.w3.org/2000/svg">
<path d="M10 8.05V2C8.73333 2.23333 7.75 2.84583 7.05 3.8375C6.35 4.82917 6 5.85 6 6.9H5.5C4.53333 6.9 3.70833 7.24167 3.025 7.925C2.34167 8.60833 2 9.43333 2 10.4C2 11.3667 2.34167 12.1917 3.025 12.875C3.70833 13.5583 4.53333 13.9 5.5 13.9H17.5C18.2 13.9 18.7917 13.6583 19.275 13.175C19.7583 12.6917 20 12.1 20 11.4C20 10.7 19.7583 10.1083 19.275 9.625C18.7917 9.14167 18.2 8.9 17.5 8.9H16V6.9C16 6.1 15.8167 5.35417 15.45 4.6625C15.0833 3.97083 14.6 3.38333 14 2.9V0.575C15.2333 1.15833 16.2083 2.02083 16.925 3.1625C17.6417 4.30417 18 5.55 18 6.9C19.15 7.03333 20.1042 7.52917 20.8625 8.3875C21.6208 9.24583 22 10.25 22 11.4C22 12.65 21.5625 13.7125 20.6875 14.5875C19.8125 15.4625 18.75 15.9 17.5 15.9H5.5C3.98333 15.9 2.6875 15.375 1.6125 14.325C0.5375 13.275 0 11.9917 0 10.475C0 9.175 0.391667 8.01667 1.175 7C1.95833 5.98333 2.98333 5.33333 4.25 5.05C4.53333 3.85 5.24167 2.70833 6.375 1.625C7.50833 0.541667 8.71667 0 10 0C10.55 0 11.0208 0.195833 11.4125 0.5875C11.8042 0.979167 12 1.45 12 2V8.05L12.9 7.175C13.0833 6.99167 13.3125 6.9 13.5875 6.9C13.8625 6.9 14.1 7 14.3 7.2C14.4833 7.38333 14.575 7.61667 14.575 7.9C14.575 8.18333 14.4833 8.41667 14.3 8.6L11.7 11.2C11.5 11.4 11.2667 11.5 11 11.5C10.7333 11.5 10.5 11.4 10.3 11.2L7.7 8.6C7.51667 8.41667 7.42083 8.1875 7.4125 7.9125C7.40417 7.6375 7.5 7.4 7.7 7.2C7.88333 7.01667 8.1125 6.92083 8.3875 6.9125C8.6625 6.90417 8.9 6.99167 9.1 7.175L10 8.05Z" fill="#1C1B1F"/>
</svg>
